<svg id="Layer_5" data-name="Layer 5" xmlns="http://www.w3.org/2000/svg" viewBox="0 0 843.14 938.7"><defs><style>.cls-1{fill:#fff;}</style></defs><title>logo</title><path class="cls-1" d="M500,969.35c-9.47,0-23.54-1.59-36.75-9.19L152.51,781.58c-20.47-11.76-36.78-37.38-38.78-60.91L78.64,307.25c-2.17-25.62,12.43-53.51,34.72-66.32L463.25,39.84c13.21-7.6,27.28-9.19,36.75-9.19s23.54,1.59,36.75,9.19L886.64,240.92c22.29,12.81,36.89,40.7,34.72,66.32L886.27,720.67c-2,23.53-18.31,49.15-38.78,60.91L536.75,960.16c-13.22,7.59-27.28,9.19-36.75,9.19m0-896.7c-6.07,0-11.84,1.31-15.83,3.6L134.29,277.34c-8.14,4.68-14.59,17-13.8,26.36l35.09,413.42c0.85,10,9.19,23.07,17.86,28L484.17,923.75c4,2.29,9.75,3.6,15.83,3.6s11.84-1.31,15.83-3.6L826.56,745.16c8.67-5,17-18.09,17.86-28l35.09-413.42c0.79-9.36-5.65-21.68-13.8-26.36L515.83,76.25c-4-2.29-9.75-3.6-15.83-3.6m0-10c-7.54,0-15.09,1.64-20.81,4.93L129.31,268.67c-11.44,6.58-19.89,22.72-18.78,35.87L145.62,718c1.12,13.15,11.39,29.3,22.84,35.87L479.19,932.42c5.72,3.29,13.27,4.93,20.81,4.93s15.09-1.64,20.81-4.93L831.54,753.83c11.44-6.58,21.72-22.72,22.84-35.87l35.09-413.42c1.12-13.15-7.33-29.3-18.78-35.87L520.81,67.58c-5.72-3.29-13.26-4.93-20.81-4.93M580,220a80,80,0,1,1-80-80,80,80,0,0,1,80,80m-47.75,4.16H521.4c-0.43-3.45-2.08-8.27-8-8.27H469.23c-6.52,0-7.86,5.88-8.08,9.31v16.9c0,16.17,15.61,30.67,21.74,30.67h16.86c3.08,0,8.51-3.62,13.18-9.27,6.67-.77,12.32-2.14,15.9-4.56A25.68,25.68,0,0,0,539.94,238c0-8.06,0-13.85-7.69-13.85M529.91,238c0-1.19,0-2.6,0-3.81H521.5v7.9a28.92,28.92,0,0,1-1.9,10,12.93,12.93,0,0,0,3.63-1.52A15.59,15.59,0,0,0,529.91,238m-9-37.56c3.87-1.93,7.79-5.62,8.81-9.34a8.8,8.8,0,0,0-2.33-8.93c-5.47-5.47-15.25-4.59-22.65-3.62-4.82.64-9.25,1.68-14.11,2.08-3.87.32-7.35-.26-3.82-4.43,2.35-2.8,9.24-4.79,15.36-5.22,5-.36,10.23.18,13.88,2-7.95-6.31-21-6.7-31.86-4.59-8,1.56-15.61,5.71-20.55,12.31a17,17,0,0,0-3.43,11.93c1.35,9.48,13.47,8,23.93,5.14,8.28-2.27,19.4-7.19,26.84-6.6,3.06,0.25,5.56,1.64,2.55,5.44-1.7,2.17-6.66,4.63-11.53,6.28a58.14,58.14,0,0,1-14,2.8,77.89,77.89,0,0,0,14.66-.51c5.72-.63,13-2.11,18.27-4.74m-215.52,379,2.26,6.22c0.56,1.27,0,2.26-1.41,2.61l-26,6.48c-1.41.35-2-.35-1.7-1.84l2.26-7.35V570.32l-24.31,6.06V631.5L296.3,638a2.72,2.72,0,0,1,2,1.2l6.22,8.34a3.15,3.15,0,0,1,.85,2.33v71.51a3.94,3.94,0,0,1-1.13,2.83l-9.89,12.36a4.13,4.13,0,0,1-2.54,1.77l-46.07,11.49a2.52,2.52,0,0,1-2.54-.5L233,741.93a2.36,2.36,0,0,1-1.13-2.26v-26l-2.26-6.22a2.08,2.08,0,0,1,1.7-2.68l26-6.48c1.41-.35,2,0.36,1.41,1.91l-2.26,7.35v15.26l24.31-6.06V661.62l-39.57-6.53a2.72,2.72,0,0,1-2-1.2l-6.5-8.27a3.15,3.15,0,0,1-.85-2.33V571.49a3.93,3.93,0,0,1,1.13-2.83l10.17-12.43a4.14,4.14,0,0,1,2.54-1.77L291.78,543a2.52,2.52,0,0,1,2.54.5l9.89,7.43a2.36,2.36,0,0,1,1.13,2.26v26.29Zm95,122.73,2.26,6.22c0.57,1.27,0,2.26-1.41,2.61l-26,6.48c-1.41.35-2-.35-1.7-1.84l2.26-7.35V625.79l-24.31,21.32v67.27l2.26,6.22c0.57,1.27,0,2.26-1.41,2.61l-26,6.48c-1.41.35-2-.35-1.7-1.84l2.26-7.35V543.57l-2.26-6.5a2.08,2.08,0,0,1,1.7-2.68l26-6.48c1.41-.35,2,0.36,1.41,1.91l-2.26,7.63v82.25l24.31-21.32v-67l-2.26-6.5a2.08,2.08,0,0,1,1.7-2.68l26-6.48c1.41-.35,2,0.36,1.41,1.91l-2.26,7.63V702.19ZM480,496.05a2.52,2.52,0,0,1,2.54.5l9.89,7.43a2.36,2.36,0,0,1,1.13,2.26V674.41a3.94,3.94,0,0,1-1.13,2.83l-9.89,12.36a4.13,4.13,0,0,1-2.54,1.77l-46.07,11.49a2.52,2.52,0,0,1-2.54-.5l-9.89-7.43a2.36,2.36,0,0,1-1.13-2.26V524.49a3.93,3.93,0,0,1,1.13-2.83l9.89-12.36a4.14,4.14,0,0,1,2.54-1.77Zm-11,27.34-24.31,6.06V675.86L469,669.8V523.39Zm69,144.48,2.26,6.22c0.57,1.27,0,2.26-1.41,2.61l-26,6.48c-1.41.35-2-.35-1.41-1.91l2.26-7.35V497l-2.26-6.5c-0.57-1.27,0-2.26,1.41-2.61l60.48-15.08a2.52,2.52,0,0,1,2.54.5l9.89,7.43a2.36,2.36,0,0,1,1.13,2.26V565.8a3.93,3.93,0,0,1-1.13,2.83L575.83,581a4.14,4.14,0,0,1-2.54,1.77L538,591.56v76.31Zm0-100.62,24.31-6.06V500.14L538,506.2v61.05Zm90.44,78.07,2.26,6.22c0.57,1.27,0,2.26-1.41,2.61l-26,6.48c-1.41.35-2-.35-1.41-1.91l2.26-7.35V474.45l-2.26-6.5c-0.57-1.27,0-2.26,1.41-2.61l60.48-15.08a2.52,2.52,0,0,1,2.54.5l9.89,7.43a2.36,2.36,0,0,1,1.13,2.26v82.81a3.93,3.93,0,0,1-1.13,2.83l-9.89,12.36a4.14,4.14,0,0,1-2.54,1.77L628.39,569v76.31Zm0-100.62,24.31-6.06V477.59l-24.31,6.06V544.7Zm136.51,73.65a2.71,2.71,0,0,1-2.26,2.54l-69,17.19c-1.41.35-2-.35-1.41-1.91l2.26-7.63V451.61l-2.26-6.22c-0.57-1.27,0-2.26,1.41-2.61l69-17.19c1.41-.35,2,0.07,2.26,1.41l2.54,19.72a2.09,2.09,0,0,1-1.7,2.4l-46.92,11.7v61.05l15.26-3.81,7.07-4c1.41-.92,2.26-0.56,2.26.85v26a1.8,1.8,0,0,1-2.26,2l-7.07-.5-15.26,3.81v61l46.92-11.7a1.25,1.25,0,0,1,1.7,1.56ZM236.43,434.92l-1.14-3.15a0.89,0.89,0,0,1,.71-1.32l30.58-7.63a1.27,1.27,0,0,1,1.29.25l5,3.75a1.19,1.19,0,0,1,.57,1.14v35.59a2,2,0,0,1-.57,1.43l-5.72,7,5.72,4.15a1.19,1.19,0,0,1,.57,1.14V513a2,2,0,0,1-.57,1.43l-5,6.25a2.09,2.09,0,0,1-1.29.89L236,529.21c-0.71.18-1-.18-0.71-1l1.14-3.86V434.92Zm12.43,4.62v30.87l12.29-3.06V436.47Zm12.29,40.1-12.29,3.06v30.87l12.29-3.06V479.64Zm58.45,16.44a0.63,0.63,0,0,1,.86.79l-1.29,10.61a1.37,1.37,0,0,1-1.14,1.28l-34.87,8.69c-0.71.18-1-.18-0.71-1l1.14-3.71V423.31L282.45,420a0.89,0.89,0,0,1,.71-1.32l13.15-3.28c0.71-.18,1,0.18.86,0.93L296,420.21V502Zm31-90.77,11.15,86,1.71,5a0.89,0.89,0,0,1-.71,1.32l-13,3.24c-0.86.21-1.14-.14-0.86-0.93l1-3.11L347.76,475,340,481.83l-1.71,17.86,0.86,2.64a0.89,0.89,0,0,1-.71,1.32l-13.15,3.28c-0.71.18-1-.18-0.71-1l1.71-5.86,11.15-91.53-0.71-2.11a0.89,0.89,0,0,1,.71-1.32l13.15-3.28c0.71-.18,1,0.18.71,1Zm-9.15,61.45,5-4.39L344,439Zm34.59,27.53a1.28,1.28,0,0,1-1.29-.25l-5-3.75a1.19,1.19,0,0,1-.57-1.14v-85a2,2,0,0,1,.57-1.43l5-6.25a2.09,2.09,0,0,1,1.29-.89l23.29-5.81a1.27,1.27,0,0,1,1.29.25l5,3.75a1.19,1.19,0,0,1,.57,1.14V408l1.14,3.15a0.89,0.89,0,0,1-.71,1.32l-13.15,3.28c-0.71.18-1-.18-0.71-1l1.14-3.72v-7.72l-12.43,3.1v74l12.43-3.1v-7.72l-1.14-3.14a0.89,0.89,0,0,1,.71-1.32l13.15-3.28c0.71-.18,1,0.18.71,1l-1.14,3.71v13.29a2,2,0,0,1-.57,1.43l-5,6.25a2.09,2.09,0,0,1-1.29.89Zm53.17-66.71,16.29-47.36-0.29-.79c-0.29-.64,0-1.14.86-1.36l14.29-3.56c1-.25,1.14.29,0.57,1.14l-2,2.21-17.29,50.76,17.29,42,2,1.22c0.57,0.57.43,1.18-.57,1.43l-14.29,3.56c-0.86.21-1.14-.14-0.86-0.93l0.29-.79-16.29-39.24v40.59l1.14,3.14a0.89,0.89,0,0,1-.71,1.32l-13.15,3.28c-0.71.18-1-.18-0.71-1l1.14-3.71V390.06l-1.14-3.29a0.89,0.89,0,0,1,.71-1.32l13.15-3.28c0.71-.18,1,0.18.71,1L429.23,387v40.59Zm73.46,35.13a1.27,1.27,0,0,1-1.29-.25l-5-3.75a1.19,1.19,0,0,1-.57-1.14v-85a2,2,0,0,1,.57-1.43l5-6.25a2.09,2.09,0,0,1,1.29-.89L526,358.16a1.27,1.27,0,0,1,1.29.25l5,3.75a1.19,1.19,0,0,1,.57,1.14v13.15L534,379.6a0.89,0.89,0,0,1-.71,1.32l-13.15,3.28c-0.71.18-1-.18-0.71-1l1.14-3.72V371.8l-12.43,3.1v74l12.43-3.1v-7.72L519.41,435a0.89,0.89,0,0,1,.71-1.32l13.15-3.28c0.71-.18,1,0.18.71,1L532.84,435v13.29a2,2,0,0,1-.57,1.43l-5,6.25a2.09,2.09,0,0,1-1.29.89Zm69.46-116.07a1.27,1.27,0,0,1,1.29.25l5,3.75a1.19,1.19,0,0,1,.57,1.14v85a2,2,0,0,1-.57,1.43l-5,6.25a2.09,2.09,0,0,1-1.29.89l-23.29,5.81a1.27,1.27,0,0,1-1.29-.25l-5-3.75a1.19,1.19,0,0,1-.57-1.14V361a2,2,0,0,1,.57-1.43l5-6.25a2.09,2.09,0,0,1,1.29-.89Zm-5.57,13.82-12.29,3.06v74l12.29-3.06v-74ZM589.15,347L588,343.83a0.89,0.89,0,0,1,.71-1.32l34.87-8.69a0.78,0.78,0,0,1,1.14.72l1.29,10a1.06,1.06,0,0,1-.86,1.21l-23.72,5.91V382.5l7.72-1.92,3.43-2c0.71-.46,1.14-0.29,1.14.43v13.15a0.91,0.91,0,0,1-1.14,1l-3.43-.29-7.72,1.92v38.59l1.14,3.29a0.89,0.89,0,0,1-.71,1.32l-13.15,3.28c-0.71.18-1-.18-0.71-1l1.14-3.86V347Zm45-11.22L633,332.61a0.89,0.89,0,0,1,.71-1.32l34.87-8.69a0.78,0.78,0,0,1,1.14.72l1.29,10a1.06,1.06,0,0,1-.86,1.21l-23.72,5.91v30.87l7.72-1.92,3.43-2c0.71-.46,1.14-0.29,1.14.43v13.15a0.91,0.91,0,0,1-1.14,1l-3.43-.29-7.72,1.92v38.59l1.14,3.29a0.89,0.89,0,0,1-.71,1.32L633.74,430c-0.71.18-1-.18-0.71-1l1.14-3.86V335.75Zm80.6,73.08a1.37,1.37,0,0,1-1.14,1.29l-34.87,8.69c-0.71.18-1-.18-0.71-1l1.14-3.86V324.53L678,321.39a0.89,0.89,0,0,1,.71-1.32l34.87-8.69a0.78,0.78,0,0,1,1.14.72l1.29,10a1.06,1.06,0,0,1-.86,1.21l-23.72,5.91v30.87l7.72-1.92,3.57-2c0.71-.46,1.14-0.29,1.14.43v13.15a0.91,0.91,0,0,1-1.14,1l-3.57-.25-7.72,1.92v30.87l23.72-5.91a0.63,0.63,0,0,1,.86.79Zm45-11.22a1.37,1.37,0,0,1-1.14,1.29l-34.87,8.69c-0.71.18-1-.18-0.71-1l1.14-3.86V313.31l-1.14-3.15a0.89,0.89,0,0,1,.71-1.32l34.87-8.69a0.78,0.78,0,0,1,1.14.72l1.29,10a1.06,1.06,0,0,1-.86,1.21L736.5,318v30.87l7.72-1.92,3.57-2c0.71-.46,1.14-0.29,1.14.43v13.15a0.91,0.91,0,0,1-1.14,1l-3.57-.25-7.72,1.92V392l23.72-5.91a0.63,0.63,0,0,1,.86.79Zm-153,283.83-0.48-1.32a0.44,0.44,0,0,1,.36-0.57l12.84-3.2a0.54,0.54,0,0,1,.54.1l2.1,1.58a0.5,0.5,0,0,1,.24.48v35.7a0.83,0.83,0,0,1-.24.6l-2.1,2.62a0.87,0.87,0,0,1-.54.37L606.67,721c-0.3.07-.42-0.07-0.36-0.39l0.48-1.62V681.44Zm5.22,1.94v31.08l5.16-1.29V682.1Zm29.58,28.5a0.58,0.58,0,0,1-.48.54l-14.64,3.65c-0.3.07-.42-0.07-0.3-0.4l0.48-1.62V676.49l-0.48-1.32a0.37,0.37,0,0,1,.3-0.55L641.11,671a0.33,0.33,0,0,1,.48.3l0.54,4.18a0.44,0.44,0,0,1-.36.51l-10,2.48v13l3.24-.81,1.5-.85c0.3-.2.48-0.12,0.48,0.18v5.52a0.38,0.38,0,0,1-.48.42l-1.5-.11-3.24.81v13l10-2.48a0.26,0.26,0,0,1,.36.33Zm19.2-37.37,0.48,1.32a0.37,0.37,0,0,1-.3.55l-5.52,1.38c-0.3.07-.42-0.07-0.36-0.39l0.48-1.56v-3.24l-5.16,1.29v13l7.5-1.87a0.54,0.54,0,0,1,.54.11l2.1,1.58a0.5,0.5,0,0,1,.24.48v17.52a0.84,0.84,0,0,1-.24.6l-2.1,2.62a0.88,0.88,0,0,1-.54.37l-9.78,2.44a0.53,0.53,0,0,1-.54-0.11L645.43,709a0.5,0.5,0,0,1-.24-0.48V703l-0.48-1.32a0.44,0.44,0,0,1,.36-0.57l5.52-1.38c0.3-.07.42,0.07,0.3,0.4l-0.48,1.56v3.24l5.16-1.29v-13l-7.44,1.85a0.54,0.54,0,0,1-.54-0.11l-2.16-1.56a0.5,0.5,0,0,1-.24-0.48V672.83a0.84,0.84,0,0,1,.24-0.6l2.16-2.64a0.88,0.88,0,0,1,.54-0.37l9.78-2.44a0.54,0.54,0,0,1,.54.1l2.1,1.58a0.5,0.5,0,0,1,.24.48v5.58Zm9.78,28.64,0.48,1.32a0.37,0.37,0,0,1-.3.55l-5.52,1.38c-0.3.07-.42-0.07-0.3-0.4l0.48-1.56V666.89l-0.48-1.38a0.37,0.37,0,0,1,.3-0.55l5.52-1.38c0.3-.07.42,0.07,0.3,0.4l-0.48,1.62v37.56Zm7.14,0.14a0.54,0.54,0,0,1-.54-0.11l-2.1-1.58a0.5,0.5,0,0,1-.24-0.48v-35.7a0.84,0.84,0,0,1,.24-0.6l2.1-2.62a0.88,0.88,0,0,1,.54-0.37l9.78-2.44a0.54,0.54,0,0,1,.54.1l2.1,1.58a0.5,0.5,0,0,1,.24.48v5.52l0.48,1.32a0.37,0.37,0,0,1-.3.56L685,670.34c-0.3.07-.42-0.07-0.3-0.41l0.48-1.56v-3.24l-5.16,1.29V697.5l5.16-1.29V685.89l-1.08.27a0.3,0.3,0,0,1-.42-0.26l-1-4.14a0.44,0.44,0,0,1,.36-0.57l7.44-1.85c0.3-.07.42,0.07,0.3,0.4l-0.48,1.62v15.9a0.84,0.84,0,0,1-.24.6l-2.1,2.62a0.88,0.88,0,0,1-.54.37Zm22.74-7.59,0.48,1.32a0.37,0.37,0,0,1-.3.55L695.11,699c-0.3.07-.42-0.07-0.3-0.4l0.48-1.56V659.44l-0.48-1.38a0.37,0.37,0,0,1,.3-0.55l5-1.24a0.3,0.3,0,0,1,.42.25l5.16,21V656.85l-0.48-1.38a0.37,0.37,0,0,1,.3-0.55l5.52-1.38c0.3-.07.42,0.07,0.3,0.4l-0.48,1.62v37.56l0.48,1.32a0.37,0.37,0,0,1-.3.55l-5,1.24a0.3,0.3,0,0,1-.42-0.26l-5.16-21v20.7ZM730,690.27a0.53,0.53,0,0,1-.54-0.11l-2.1-1.58a0.5,0.5,0,0,1-.24-0.48v-35.7a0.83,0.83,0,0,1,.24-0.6l2.1-2.62a0.88,0.88,0,0,1,.54-0.37l9.78-2.44a0.54,0.54,0,0,1,.54.1l2.1,1.58a0.5,0.5,0,0,1,.24.48v5.52l0.48,1.32a0.37,0.37,0,0,1-.3.56l-5.52,1.38c-0.3.07-.42-0.07-0.3-0.41l0.48-1.56V652.1l-5.22,1.3v31.08l5.22-1.3v-3.24L737,678.62a0.37,0.37,0,0,1,.3-0.56l5.52-1.38c0.3-.07.42,0.08,0.3,0.41l-0.48,1.56v5.58a0.83,0.83,0,0,1-.24.6l-2.1,2.62a0.87,0.87,0,0,1-.54.37Zm29.16-48.73a0.54,0.54,0,0,1,.54.1l2.1,1.58a0.5,0.5,0,0,1,.24.48v35.7a0.83,0.83,0,0,1-.24.6l-2.1,2.62a0.87,0.87,0,0,1-.54.37l-9.78,2.44a0.53,0.53,0,0,1-.54-0.11l-2.1-1.58a0.5,0.5,0,0,1-.24-0.48v-35.7a0.83,0.83,0,0,1,.24-0.6l2.1-2.62a0.88,0.88,0,0,1,.54-0.37Zm-2.34,5.8-5.16,1.29v31.08l5.16-1.29V647.35Zm9,29.07a0.87,0.87,0,0,1,.54-0.43l3.12-.78a0.49,0.49,0,0,1,.54.17l0.36,0.69a1.21,1.21,0,0,1,.12.51v2a1.66,1.66,0,0,1-.12.57L770,680a0.87,0.87,0,0,1-.54.43l-3.12.78a0.49,0.49,0,0,1-.54-0.17l-0.36-.69a1.21,1.21,0,0,1-.12-0.51v-2a1.66,1.66,0,0,1,.12-0.57Z" transform="translate(-78.43 -30.65)"/></svg>